<svg xmlns="http://www.w3.org/2000/svg" viewBox="0 0 199.15 49" fill="currentColor"><path d="M77.64,17.17c2.32,1.08,4.45.72,6.57,0,3.75-1.28,7.21-3.09,10.42-5.43,4.64-3.4,9.34-6.71,14-10.1,2.08-1.51,4.33-2.02,6.8-1.34,2.95.81,4.21,3.24,2.89,6.01-.73,1.53-1.91,2.85-2.94,4.22-.97,1.3-2.14,2.48-2.98,3.86-1.12,1.83-.31,3.38,1.82,3.74.74.12,1.55.13,2.29-.01,3.12-.61,6.04-1.6,8.73-3.46,4.17-2.88,8.51-5.54,12.87-8.14,3.09-1.84,6.54-1.48,9.81-.71,3.23.76,4.27,4.81,2.11,7.35-.8.95-1.74,1.78-2.59,2.7-.92,1-1.74,2.06-1.42,3.58,1.2.86,2.2.14,3.18-.43,2.99-1.73,6-3.42,8.91-5.28,3.69-2.36,7.6-2.58,11.59-1.25,6,2,11.97,4.12,17.9,6.32,3.96,1.47,7.19,3.99,9.61,7.5,2.65,3.85,2.59,6.25-.12,9.98-2.11,2.89-4.91,4.79-8.21,6.07-4.68,1.82-9.56,2.9-14.52,3.41-8.58.88-17.19,1.59-25.79,2.21-15.04,1.09-30.1,1.35-45.15.64-7.27-.34-14.53-1.16-21.79-1.8-8.02-.7-16.04-1.52-24.07-2.13-15.37-1.17-30.39-4.1-45.05-8.84-1.91-.62-3.81-1.35-5.59-2.26-3.1-1.6-5.32-4.04-6.41-7.43-1.04-3.27-.53-5.75,2.31-7.59,2.87-1.86,5.98-3.48,9.19-4.65,4.4-1.61,8.99-2.69,13.49-4.04.98-.3,2.08-.59,2.51.47.29.72.02,1.82-.32,2.62-.35.83-1.07,1.51-1.88,2.59,3,.09,5.45-.01,7.56-1.85,3.25-2.84,6.58-5.59,9.82-8.45,1.42-1.25,2.98-2.04,4.84-2.33,1.2-.19,2.35-.24,3.14.82.89,1.2.34,2.37-.33,3.47-.25.41-.54.79-.82,1.18-.33.47-.69.92-.99,1.42-.95,1.59-1.98,3.39-.87,5.11,1.19,1.84,3.39,1.74,5.26,1.25,1.63-.43,3.26-1.18,4.66-2.12,4.14-2.77,8.15-5.72,12.24-8.58,3.37-2.36,7.31-3.37,11.18-4.39,2.59-.69,4.17,1.17,3.26,3.68-.61,1.68-1.62,3.25-2.62,4.75-.85,1.27-1.99,2.33-2.93,3.55-.87,1.13-1.75,2.29-1.54,4.12Z"></path></svg>