<svg xmlns="http://www.w3.org/2000/svg" viewBox="0 0 110.47 236.9" fill="#00334A"><path d="M13.81,212.85c.37-3.21.76-7.22,1.32-11.21.81-5.72-1.09-10.59-4.5-14.99-.68-.88-1.71-1.52-2.66-2.15-.88-.57-1.88-.95-2.8-1.46-3.93-2.15-5.69-5.32-5.03-9.75.38-2.54,1.03-5.09,1.95-7.49,2.17-5.67,5.15-10.9,9.08-15.6,2.03-2.42,3.9-4.99,5.64-7.63,3.95-5.99,5.11-12.75,4.97-19.78-.06-2.84-1.22-5.37-2.58-7.85-1.79-3.28-3.52-6.6-5.05-10-2.25-4.99-2.01-10.04.04-15.09,2.94-7.21,7.74-12.7,14.55-16.48,2.68-1.49,5.21-3.23,7.85-4.8,1.92-1.14,2.72-2.85,2.95-4.98.43-4.05-.5-7.83-2.31-11.4-1.6-3.15-2.46-6.41-2.18-9.98.23-2.88,1.17-5.37,3.14-7.53,2.74-3.01,5.7-5.62,9.54-7.23,2.82-1.18,5.49-2.73,8.2-4.18,3.57-1.9,4.58-3.92,4.12-8-.15-1.33-.31-2.67-.42-4.01-.24-2.95.96-5.2,3.35-6.88,2.39-1.69,5.05-2.75,7.88-3.36,1.5-.32,3.05-.39,4.53-.75,3.84-.95,6.74.64,9.2,3.34,1.22,1.34,2.18,2.92,3.4,4.27,1.07,1.18,2.25,2.31,3.54,3.25,1.39,1.01,2.99,1.72,4.44,2.65,8.02,5.09,12.53,12.5,14.14,21.74.98,5.63-.14,10.88-3.39,15.62-.92,1.34-1.96,2.61-2.88,3.96-.92,1.34-1.88,2.68-2.59,4.14-2.36,4.77-1.94,7.54,1.59,11.56,1.39,1.58,2.83,3.13,4.18,4.75,2.65,3.15,3.43,6.83,2.68,10.8-1.35,7.15-3.87,13.82-8.15,19.8-2.28,3.19-5.01,5.79-8.51,7.56-3.29,1.66-6.19,3.85-8.63,6.62-2.89,3.29-3.03,5.38-.71,9.07.66,1.06,1.34,2.1,2.07,3.12,6.22,8.61,1.37,20.06-4.36,24.23-2.61,1.9-5.42,3.25-8.59,3.83-2.36.43-4.26,1.62-5.89,3.35-2.1,2.23-3.18,4.74-2.56,7.86.37,1.88.69,3.78.92,5.68.65,5.37-.52,10.33-3.74,14.69-2.78,3.77-6.48,5.81-11.3,5.79-6.64-.02-9.02,1.84-10.29,8.37-.64,3.27-.59,6.67-.9,10.01-.36,3.91-.67,7.83-1.18,11.72-.2,1.49-.78,2.98-1.41,4.36-1.9,4.18-5.64,5.68-9.74,3.53-2.32-1.22-4.55-2.94-6.27-4.91-4.29-4.92-6.6-10.74-6.67-18.17ZM31.56,181.46c1.97-.71,1.96-2.24,2.17-3.47.49-2.83.99-5.69,1.07-8.56.12-4.15,1.84-7.53,4.11-10.84,2.43-3.56,4.7-7.23,6.83-10.98,2.43-4.28,3.28-8.98,2.91-13.88-.16-2.1-.45-4.2-.7-6.29-.49-4.11-.67-8.21.11-12.32,1.37-7.28,5.04-13.39,9.46-19.16,7.84-10.24,12.82-21.54,12.84-34.69,0-4.18,1.06-8.08,2.9-11.89,3.39-7.02,5.32-14.39,3.81-22.29-.28-1.5-.3-3.09-1.72-4.27-.54,2.18-1.05,4.34-.99,6.5.16,5.75-1.43,11.06-4.02,16.01-3.15,6.02-4.5,12.34-4.79,19.06-.27,6.28-1.84,12.3-4.82,17.91-2.21,4.16-4.76,8.07-7.8,11.7-5.09,6.07-8.6,12.95-9.34,20.96-.54,5.92-.97,11.85-1.19,17.79-.19,5.05-.81,9.92-3.22,14.46-2.34,4.4-4.65,8.82-6.83,13.3-2.87,5.91-3.38,12.12-1.89,18.5.2.85.72,1.63,1.1,2.45Z"></path></svg>