<svg xmlns="http://www.w3.org/2000/svg" viewBox="0 0 341.23 427.27" fill="#3E4744"><path d="M74.31,251.98c.43-3.07.97-8.61,2.04-14.05.55-2.8,1.76-5.57,3.16-8.08,2.18-3.92,4.56-7.77,7.24-11.36,4.88-6.56,8.84-13.57,11.94-21.12,1.47-3.58,3.23-7.05,5.04-10.48,2.51-4.74,6.02-8.65,10.28-11.94,11.14-8.61,23.35-15.13,36.93-18.96,2.03-.57,4.13-1.07,6.22-1.15,2.25-.09,4.63,0,6.77.64,3.58,1.06,4.54,5.13,1.93,7.82-1.13,1.17-2.67,2.01-4.14,2.75-3.38,1.71-6.84,3.26-10.25,4.9-4.76,2.3-8.37,5.8-10.83,10.49-.74,1.41-1.38,2.87-2.27,4.18-1.62,2.4-3.27,4.8-5.11,7.02-2.3,2.78-4.86,5.36-7.23,8.08-6.35,7.3-7.23,15.8-5.32,24.87.53,2.51,2.24,3.98,4.63,4.57,2.42.6,4.55-.13,6.27-1.92,2.36-2.47,3.38-5.53,3.75-8.85.39-3.51.76-7.01,1.05-10.53.69-8.36,5.05-14.5,11.63-19.26,2.53-1.83,5.41-2.9,8.52-3.41,2.89-.48,5.21.37,7.04,2.62.11.14.23.27.34.41,4.67,6.25,11,7.8,18.33,6.49,5.24-.94,8.19,1.85,7.37,7.14-.23,1.46-.68,2.96-1.37,4.25-1.67,3.09-3.57,6.07-5.35,9.1-.71,1.21-1.57,2.38-2.01,3.69-.74,2.21.17,3.73,2.49,3.96,2.17.22,4.39.04,6.58-.06,2.9-.13,5.79-.36,8.69-.54.17-.01.37-.01.52.06,3.09,1.4,6.43.66,9.62,1.14,2.17.33,4.36.71,6.44,1.37,7.05,2.23,11.8,6.95,14.1,13.94,2.66,8.07,3.43,16.38,2.2,24.81-.63,4.29-2.78,7.95-5.24,11.44-.76,1.08-1.56,2.15-2.12,3.34-5.77,12.18-15.45,19.43-28.41,22.4-3.15.72-6.45,1.04-9.69,1.13-6.22.16-11.99,1.79-17.52,4.5-2.06,1.01-4.1,2.05-6.18,3.02-12.43,5.8-25.29,6.47-38.45,3.03-4.4-1.15-8.39-3.19-11.97-6.01-1.04-.82-2.1-1.61-3.09-2.49-4.1-3.63-8.4-7-13.13-9.78-5.78-3.39-9.42-8.69-12.7-14.27-2.05-3.49-3.84-7.14-5.6-10.79-2.37-4.94-3.29-10.21-3.15-18.14Z"></path><path d="M40.59,157.24c-.1-13.97,2.49-23.6,7.6-32.66,5.9-10.45,13.32-19.47,23.33-26.24,5.55-3.75,11-7.64,16.53-11.43,10-6.85,18.01-15.41,23.45-26.34,4.22-8.47,10.78-14.24,20.09-16.66,7.59-1.97,15.13-4.1,22.73-6.01,5.42-1.36,10.68-.15,15.82,1.6,1.91.65,3.28,2.04,4.23,3.81.86,1.61,1.03,2.97,0,4.86-2.2,4.06-5.1,7.34-8.65,10.19-1.84,1.48-3.64,3.11-5.08,4.96-2.34,3-3.28,6.56-3.43,10.37-.13,3.17-.4,6.33-.74,9.49-.43,3.97-2.09,7.43-4.7,10.45-2.56,2.96-5.5,5.46-8.84,7.49-1.88,1.14-3.79,2.25-5.6,3.51-5.55,3.86-8.9,9.24-10.22,15.8-.45,2.21-.21,4.56-.3,6.85-.16,4.22.05,8.5-.58,12.65-.94,6.26-3.6,11.96-7.21,17.16-2.91,4.2-6.72,7.19-11.76,8.45-3.11.78-5.96,2.14-8.63,3.9-3.4,2.23-6.01,5.16-7.76,8.83-1.29,2.7-2.4,5.5-3.77,8.16-1.29,2.5-2.6,5.03-4.27,7.28-7.26,9.78-19.71,10.54-28.2,1.76-1.4-1.44-2.62-3.11-3.65-4.84-6.75-11.39-10.06-23.78-10.41-33.38Z"></path><path d="M224.07,408.12c-9.61-.4-19.18-3.81-27.5-10.46-2.75-2.19-5.22-4.74-7.75-7.19-4.9-4.73-10.14-9.02-15.9-12.67-4.42-2.81-9.24-4.73-14.07-6.66-2.45-.98-4.88-2.05-7.16-3.36-3.94-2.26-6.78-5.57-8.53-9.79-1.59-3.83-1.4-7.57.54-11.22,1.88-3.54,4.6-6.24,8.26-7.89,2.09-.94,4.2-1.84,6.36-2.6,6.99-2.46,13.24-6.17,18.88-10.94,5.24-4.42,11.33-5.59,17.87-4.31,6.37,1.24,10.2,5.7,12.72,11.31,2.46,5.46,4.59,11.07,6.95,16.57.97,2.26,2.01,4.53,3.35,6.58,2.71,4.16,6.33,5.24,11.02,3.58,3.14-1.11,5.74-3.09,8.19-5.25,8.26-7.3,15.14-15.75,20.76-25.23,2.62-4.41,5.45-8.66,8.89-12.47,4.47-4.95,9.55-9.14,15.64-11.98,3.92-1.83,7.84-1.8,11.75.02,4.77,2.22,6.69,6.15,5.19,11.28-.69,2.34-1.89,4.54-3.02,6.72-.64,1.24-1.54,2.36-2.42,3.46-3.08,3.86-4.51,8.3-4.87,13.18-.18,2.46-.48,4.92-.98,7.33-1.03,4.93-3.5,9.07-7.7,11.92-2.54,1.72-5.32,3.08-8.03,4.53-1.39.75-2.89,1.31-4.31,2.01-4.05,2.01-6.55,5.21-7.5,9.66-1.13,5.26-2.62,10.4-4.6,15.43-2.9,7.37-8.09,12.24-15.28,15.2-5.03,2.07-10.24,3.2-16.72,3.24Z"></path><path d="M253.91,137.89c-.27,7.89-1.69,15.44-5.31,22.5-2.01,3.92-3.9,7.91-6.1,11.72-3.3,5.72-4.77,11.85-5.15,18.39-.25,4.29-.86,8.59-1.63,12.82-.34,1.85-1.27,3.68-2.31,5.28-2.02,3.11-5.41,4.26-9.02,3.39-3.57-.86-6.52-2.81-8.64-5.73-1.8-2.48-3.33-5.18-4.72-7.92-1.76-3.45-3.28-7.02-4.87-10.56-1.57-3.49-3.93-6.23-7.36-8.02-.93-.49-1.78-1.13-2.67-1.7-7.1-4.54-5.39-15.36.12-18.79,1.49-.93,3.07-1.71,4.65-2.48,2.77-1.35,5.62-2.54,8.35-3.97,3.07-1.6,5.25-4.11,6.64-7.29.87-1.98.72-2.68-.78-4.26-2.48-2.61-5.7-3.36-9.1-3.65-5.09-.44-10,.53-14.86,1.89-5,1.4-9.98,2.88-15.01,4.18-3.6.93-7.29,1.2-11.02.83-7.67-.77-11.76-7.27-9.02-14.49.56-1.47,1.36-2.87,2.19-4.21,1.84-3.01,3.75-5.97,5.67-8.93,1.04-1.6,1.7-3.32,1.49-5.24-.63-5.76,2.11-10.44,4.92-15.03,1.49-2.45,4.03-3.68,6.86-3.97,4.64-.47,7.92,2.03,10.53,5.42.77,1,.83,2.65.96,4.02.25,2.63.16,5.29.5,7.9.56,4.24,3.22,7,7.02,8.56,1.29.53,3,.6,4.35.25,2.62-.69,5.21-1.65,7.67-2.8,4.31-2.01,6.34-6.48,4.94-11.02-1.68-5.44-4.21-10.35-8.73-14.18-7.55-6.4-10.64-15-10.79-24.64-.11-7.37,4.65-13.39,11.47-15.41,1.57-.47,2.76-.31,4.35.67,4.25,2.62,7.43,6.1,10.22,10.12,2.61,3.77,5.45,7.37,8.1,11.11,3.79,5.35,6.8,11.14,8.98,17.31,2.53,7.17,5.71,14.03,9.23,20.75,3.12,5.96,5.69,12.13,6.88,18.78.49,2.77.67,5.59.99,8.39Z"></path><path d="M339.83,60c-.52,3.48-.82,7.19-1.67,10.77-1.99,8.38-2.44,16.79-.64,25.18,1.39,6.51.69,12.8-.92,19.09-1.71,6.66-3.72,13.24-5.25,19.94-2.62,11.47-3.26,23.06-.76,34.64.76,3.5,2.06,6.94,3.52,10.22,3.62,8.14,5.88,16.61,6.78,25.45.64,6.35.44,12.69-1.36,18.89-.94,3.25-2.33,6.29-4.41,8.97-4.83,6.2-11.91,6.78-17.72,1.49-2.97-2.7-4.93-6.07-5.76-9.92-1.12-5.16-1.89-10.4-2.73-15.61-.93-5.74-1.71-11.5-2.68-17.24-.29-1.72-.95-3.39-1.55-5.05-1.73-4.77-4.51-8.78-8.75-11.65-7.19-4.87-10.83-11.87-12.18-20.23-.76-4.73.04-9.31,1.58-13.79,1.38-4.03,3.42-7.73,5.77-11.27,3.22-4.85,6.54-9.63,9.63-14.56,4.89-7.82,8.58-16.19,10.95-25.12,3.12-11.75,2.32-23.27-2.55-34.4-3.05-6.97-6.85-13.53-11.75-19.4-4.93-5.9-5.75-12.48-3.2-19.6.3-.82.68-1.64,1.16-2.37,1.26-1.96,2.99-2.67,5.23-2.06,1.09.3,2.26.69,3.12,1.38,1.74,1.41,3.74,2.27,5.7,3.25,1.08.54,2.1,1.33,2.92,2.21,4.51,4.86,9.28,9.49,14.78,13.17,6.71,4.49,10.25,10.73,11.5,18.49.47,2.95.8,5.93,1.22,9.15Z"></path><path d="M52.53,240.44c-.7,5.07-1.31,10.41-2.19,15.71-1.09,6.63-1.78,13.25-1.36,20,.53,8.66,3.03,16.45,9.26,22.73,4.78,4.82,9.49,9.73,14.5,14.29,2.58,2.34,5.63,4.25,8.68,5.96,7.08,3.97,14,8.18,20.63,12.87,5.67,4.01,9.95,9.2,13.21,15.26,2.71,5.04,2.47,10.15-.07,15.21-1.8,3.6-4.84,5.44-8.73,5.38-3.23-.04-6.52-.39-9.67-1.13-8.09-1.9-16.31-2.83-24.53-3.84-1.56-.19-3.17-.07-4.75.03-6.8.41-13.57.27-20.3-.86-2.25-.38-4.5-.89-6.66-1.62-4.02-1.35-7.46-3.54-9.72-7.31-.44-.73-1.13-1.33-1.76-1.94-1.59-1.52-2.61-3.32-2.77-5.54-.32-4.17-1.39-8.1-3.17-11.93-1.02-2.19-1.33-4.72-1.96-7.1-.64-2.46-.98-5.06-1.97-7.38-4.89-11.41-4.93-23.13-2.56-35.04.46-2.33.99-4.66,1.67-6.94,2.51-8.43,3.36-17.1,3.82-25.84.39-7.56,2.3-14.78,5.37-21.69,1.5-3.38,3.71-6.19,6.93-8.12,1.84-1.1,3.78-1.84,5.96-1.96,3.7-.2,6.59,1.27,8.45,4.39,1.02,1.71,1.87,3.65,2.25,5.59.68,3.44.96,6.97,1.44,10.79Z"></path><path d="M.05,101.2c.11-12.36,4.73-22.53,13.59-30.93,4.86-4.61,9.59-9.36,14.4-14.02,3.87-3.75,6.76-8.06,8.27-13.31.87-3.04,2.1-5.98,3.22-8.95.5-1.32,1.1-2.6,1.7-3.87,4.83-10.27,13.2-15.44,24.19-16.9,1.82-.24,3.61-.73,5.41-1.12.34-.07.67-.29,1.01-.3,7.31-.19,14.36-3,21.76-2.22,2.09.22,4.25.34,6.23.97,4.41,1.39,6.11,4.61,4.99,9.06-1.39,5.55-5.09,9.21-10.11,11.5-2.37,1.08-5.04,1.49-7.56,2.28-2.17.68-4.37,1.32-6.43,2.27-1.82.84-2.64,2.44-2.43,4.57.14,1.39.08,2.82-.06,4.22-.54,5.21-3.97,8.68-9.1,9.52-1.45.24-2.97.62-4.22,1.33-2.41,1.37-2.96,3.19-2.15,5.83.18.59.37,1.18.61,1.75,2.7,6.18-.49,14.18-6.09,17.51-1.39.83-3.09,1.52-4.67,1.58-5.92.23-10.42,3.03-14.06,7.39-1.85,2.22-3.43,4.69-5,7.14-1.67,2.59-3.1,5.34-4.81,7.9-1.46,2.19-3.03,4.35-4.78,6.31-3.28,3.66-7.55,5.41-12.41,5.67-4.85.26-8.47-2.04-9.92-6.66-.86-2.73-1.08-5.67-1.6-8.51Z"></path><path d="M62.38,380.26c7.48-.46,14.74.6,21.89,2.85,7.81,2.46,15.68,4.7,23.5,7.14,9.84,3.08,17.4,9.44,24.02,17.07,2.53,2.92,2.97,6.59,2.82,10.19-.15,3.84-2.38,6.59-5.99,7.98-1.54.6-3.22.92-4.86,1.17-7.05,1.06-14.06.68-21.02-.72-8.32-1.67-16.65-1.4-24.97-.08-6.99,1.11-13.97,1.85-21.04.84-5.82-.83-11.37-2.51-16.41-5.54-7.67-4.62-11.72-11.46-11.98-20.48-.11-3.64,1.16-6.69,3.74-9.27,6.56-6.58,14.38-10.34,23.71-10.79,2.2-.11,4.4-.25,6.6-.37Z"></path><path d="M284.89,230.96c-.28,2.27-.32,4.6-.88,6.8-1.64,6.48-2.07,13.19-4.16,19.62-3.65,11.2-8.79,21.51-16.48,30.49-4.79,5.6-8.41,11.95-11.65,18.53-2.56,5.19-5.71,9.93-10.03,13.83-1.04.94-2.09,1.92-3.28,2.65-3.56,2.21-7.18,1.15-9.09-2.6-1.45-2.86-1.82-5.94-1.09-9.01.61-2.55,1.55-5.04,2.51-7.49.87-2.21,1.99-4.32,2.98-6.48,1.47-3.22,2.6-6.55,3.02-10.09.84-7.01,3.08-13.62,6.39-19.76,4.56-8.44,7.18-17.42,8.3-26.85.58-4.89.6-9.85.83-14.78.37-7.66.63-15.33,1.09-22.99.25-4.06,1.24-8,2.68-11.82.25-.66.56-1.29.9-1.91,2.84-5.3,7.02-6.61,12.36-3.9,4.24,2.15,7.25,5.25,7.98,10.17.31,2.09.56,4.2,1.06,6.25,1,4.1,2,8.21,3.26,12.24,1.75,5.58,3.04,11.22,3.27,17.12Z"></path><path d="M283.8,415.61c-2.31-.29-4.78-.46-7.19-.93-9.03-1.77-10.4-9.06-8.69-15.16.78-2.8,2.35-5.19,4.62-6.93,2.85-2.18,5.87-4.17,8.92-6.08,2.01-1.26,4.31-2.07,6.26-3.4,1.94-1.32,3.75-2.91,5.37-4.62,2.54-2.68,4.83-5.61,7.31-8.34,5.68-6.25,12.59-8.44,20.78-5.97,2.1.63,4.19,1.35,6.2,2.23,2.48,1.07,4.4,2.88,5.95,5.09.61.88,1.19,1.73.9,2.91-.1.39-.07.92.13,1.25,2.97,5.18,2.37,10.59.73,15.89-3.28,10.62-10.57,17.03-21.45,19.21-7.24,1.45-14.52,2.75-21.8,4-2.59.45-5.25.57-8.04.86Z"></path><path d="M281,101.31c-.09,4.45-.75,8.77-2.81,12.78-.94,1.83-2.15,3.43-3.96,4.5-2.57,1.52-4.83,1.34-7.02-.66-.71-.65-1.37-1.39-1.9-2.19-3.46-5.23-5.69-10.89-6.21-17.2-.39-4.83-.94-9.64-1.45-14.46-.34-3.19-1.31-6.2-2.86-9.01-1.74-3.17-2.59-6.59-2.46-10.16.15-4.04.58-8.06.9-12.09.02-.26.09-.52.16-.78,1.6-6.06,7.22-8.13,12.54-4.67,5.2,3.39,7.89,8.12,7.98,14.34.07,4.49.18,8.99.32,13.48.1,3.5,1.18,6.72,2.74,9.85,2.54,5.11,4.09,10.5,4.03,16.27Z"></path><path d="M313.74,288.74c-2.29-.39-5.03-.63-7.63-1.36-1.91-.53-3.77-1.5-5.42-2.62-4.13-2.8-5.66-6.86-4.89-11.73.56-3.53,1.95-6.77,4.12-9.63,3.91-5.15,9.19-6.81,15.43-5.97,2.09.28,4.19.49,6.29.74.44.05.91.05,1.29.24,5.34,2.66,9.62,6.1,10.25,12.68.83,8.62-3.94,15.25-12.44,16.83-2.15.4-4.36.52-7,.82Z"></path><path d="M.04,164.72c-.1-6.17-.16-10.8,1.44-15.17.83-2.28,1.95-4.59,3.48-6.44,3.63-4.39,9.29-3.5,11.36,1.8,1.04,2.67,1.53,5.6,1.9,8.47.56,4.32,1.66,8.39,3.62,12.33,2.43,4.88,3.66,10.1,2.36,15.63-.75,3.19-2.38,5.86-4.8,8.05-3.66,3.31-7.92,3.31-11.22-.37-3.39-3.78-5.79-8.23-6.67-13.29-.73-4.16-1.12-8.37-1.46-11.01Z"></path><path d="M336.99,327.12c-.07,6.44-1.13,11.43-3.31,16.11-.95,2.04-2.2,4.08-3.77,5.68-4.5,4.63-11.32,3.21-13.79-2.76-.63-1.53-1.04-3.19-1.28-4.84-.74-5.15-1.4-10.31-2-15.47-.49-4.19.04-8.33,1.72-12.18,1-2.31,2.58-4.36,3.92-6.52.17-.27.48-.6.74-.62,1.3-.1,2.78-.52,3.88-.07,5.04,2.07,9.72,4.66,11.7,10.28,1.33,3.77,2.28,7.6,2.17,10.38Z"></path><path d="M151.01,27.31c-2.05-.44-4.18-.65-6.13-1.36-6.98-2.52-9.34-10.34-4.7-16.15,5.71-7.16,13.14-10.74,22.47-9.6,5.03.62,9.75,2.37,14.35,4.36,4.34,1.88,5.4,7.91,2.11,11.35-1.07,1.11-2.48,1.96-3.87,2.69-3.27,1.72-6.62,3.29-9.92,4.94-4.22,2.11-9.7,3.46-14.31,3.76Z"></path><path d="M169.17,422.07c-2.17-.5-4.69-.91-7.1-1.68-5.95-1.9-8.91-6.3-9.7-12.3-.53-4.03,1.1-7.05,4.68-8.94,3.85-2.03,7.73-2.16,11.61-.06,4.74,2.57,8.47,6.27,11.59,10.6.96,1.33,1.48,2.8.74,4.46-.17.38-.16.85-.2,1.29-.3,3.16-1.38,4.59-4.48,5.36-2.21.55-4.49.8-7.15,1.26Z"></path><path d="M272.63,33.62c-.65-.22-2.03-.41-3.09-1.1-1.97-1.29-3.94-2.69-5.57-4.38-3.09-3.21-2.47-7.97.76-11.04,1.92-1.82,3.73-1.84,5.94-1.09,4.51,1.54,7.29,4.84,8.92,9.1,1.71,4.46-1.45,8.58-6.96,8.51Z"></path><path d="M245.87,18.35c-.05,3.67-2.41,6.19-5.96,6.82-2.8.5-5.25-.95-6.43-3.86-1.25-3.07-.92-6.05.77-8.85,1.93-3.18,4.66-3.46,7.65-1.3,2.7,1.95,3.66,4.58,3.98,7.19Z"></path><path d="M224.42,18.96c-.07,4.82-5.45,8.26-9.83,6.28-1.53-.69-2.51-1.89-2.97-3.49-1.06-3.75.93-8.51,4.35-10.46,1.73-.98,2.76-.9,4.31.36,2.59,2.11,4.18,4.91,4.14,7.32Z"></path></svg>