<svg xmlns="http://www.w3.org/2000/svg" viewBox="0 0 197 113.25" fill="#F5F0E8"><path d="M77.23,113.22c-2.42.14-5.44-.29-8.45-1.02-2.5-.6-5.03-1.11-7.55-1.6-2.15-.41-4.14-1.26-6.13-2.13-.82-.36-1.7-.59-2.56-.81-1.4-.35-2.81-.71-4.23-.94-1.82-.3-3.69-.4-5.5-.74-4.08-.77-8.15-1.6-12.22-2.46-2.96-.63-5.92-1.23-8.83-2.05-6.65-1.89-12.81-4.7-17.66-9.85-1.07-1.14-1.96-2.38-2.45-3.86-.54-1.63-1.11-3.26-1.45-4.94-.23-1.13-.26-2.36-.07-3.49.51-3.05,1.5-5.97,3.12-8.62.39-.64,1-1.14,1.51-1.7.12-.13.28-.23.4-.36,1.41-1.65,2.92-3.23,4.22-4.96,2.57-3.43,5.77-6.1,9.43-8.27,4.83-2.86,9.94-5.16,15.1-7.37,3.28-1.4,6.56-2.82,9.83-4.25,3.32-1.44,6.5-3.15,9.58-5.06,6.85-4.25,14.26-6.98,22.25-8.11,3.54-.5,7.06-1.08,10.61-1.47,3.59-.4,7.21-.59,10.81-.92,5.58-.51,11.16-1.07,16.74-1.58,3.42-.31,6.86-.5,10.27-.88,4.72-.52,9.42-1.16,14.13-1.75,1.7-.21,3.41-.46,5.11-.63,2.49-.24,4.9-.8,7.3-1.46,3.14-.85,6.3-1.63,9.45-2.4,2.26-.55,4.39-1.43,6.36-2.64,6.26-3.81,12.51-7.62,18.33-12.1,1.97-1.51,4.1-2.82,6.21-4.11,1.68-1.03,2.27-.92,3.78.29.35.28.71.56,1.05.87,1.35,1.22,1.65,2.38.78,3.99-.64,1.18-1.44,2.31-2.31,3.33-4.12,4.83-8.48,9.41-13.62,13.19-6.54,4.8-11.35,11.11-15.47,17.98-1.11,1.85-2,3.84-2.79,5.85-.54,1.38-.78,2.88-1.04,4.35-1.94,10.88-7.12,20.1-14.36,28.3-4.24,4.81-8.8,9.23-14.2,12.74-1.36.88-2.59,1.98-3.83,3.03-2.92,2.48-6.18,4.4-9.64,6.01-3.93,1.82-7.85,3.69-11.81,5.46-2.06.92-4.16,1.76-6.29,2.52-2.89,1.04-5.78,2.12-8.74,2.91-4.74,1.28-9.61,1.67-15.19,1.7Z"></path></svg>