<svg xmlns="http://www.w3.org/2000/svg" viewBox="0 0 148.05 114.57" fill="#2D4A2D"><path d="M47.7,8.97c5.66,0,11.32.04,16.98-.01,5.55-.05,10.81-1.19,15.67-4.09C85.56,1.75,91.39.48,97.36.05c2.63-.19,5.36.22,7.96.74,3,.59,5.91,1.63,8.87,2.44,4.87,1.33,8.19,4.31,10.08,9.03,2.35,5.87,4.71,11.75,7.39,17.47,1.41,3.01,3.56,5.67,5.29,8.54,1.33,2.21,2.7,4.43,3.73,6.78,3.34,7.6,2.81,15.25-.69,22.57-2.39,5-1.94,9.78.27,14.38,2.71,5.65,4.91,11.44,6.73,17.41,1.03,3.36,1.41,6.72.68,10.21-.72,3.44-2.47,5-5.96,4.96-2.68-.03-5.12-.87-7.14-2.64-4.87-4.27-9.09-9.04-11.74-15.08-1.34-3.06-3.03-5.97-4.66-8.9-1.33-2.4-3.57-3.1-6.14-2.77-1.42.18-2.8.61-4.2.94-5.71,1.34-11.4,1.35-17.06-.29-3.71-1.07-6.86-3.02-9.14-6.16-5.06-6.95-11.92-8.82-20.05-7.4-3.21.56-6.45.94-9.67,1.44-8.57,1.33-15.92-1.57-22.41-6.84-3.68-2.99-7.58-5.49-11.82-7.58-2.74-1.35-5.34-3.03-7.9-4.71C1.16,48.94-2.03,39.49,1.28,29.69,5.61,16.88,15.6,9.64,29.86,9.2c5.94-.18,11.89-.03,17.84-.03,0-.07,0-.14,0-.2Z"></path></svg>