<svg xmlns="http://www.w3.org/2000/svg" viewBox="0 0 252.86 71.89" fill="#1A2744"><path d="M124.64,25.98c10.38.07,22.09.15,33.79.24,3.49.03,6.97.15,10.46.17,2.61.02,5.23-.11,7.84-.08,3.36.04,6.73.05,10.08.29,2.87.2,5.55-.12,8.24-1.25,4.93-2.08,9.99-3.86,14.92-5.93,2.4-1.01,4.65-2.37,6.96-3.61,6.07-3.25,12.16-6.47,18.19-9.8,3.45-1.9,6.89-3.82,10.44-5.54,2.01-.97,4.65-.49,5.78,1.49.43.75,1.09,1.42,1.32,2.22.52,1.76.01,3.35-1.26,4.7-1.77,1.88-3.69,3.58-5.74,5.14-4.86,3.68-9.74,7.35-14.54,11.12-5.07,3.98-9.72,8.42-14.37,12.87-.53.51-.63,1-.39,1.67.27.74.5,1.5.68,2.26,1.31,5.67-.03,10.8-3.36,15.43-3.49,4.85-8.14,8.22-13.76,10.27-4.51,1.65-9.17,2.59-13.92,3.21-6.89.9-13.82,1.07-20.75,1.04-11.79-.05-23.57-.16-35.36-.37-8.17-.15-16.35-.44-24.51-.79-5.93-.25-11.85-.69-17.77-1.07-4.43-.28-8.86-.58-13.29-.88-4.89-.33-9.77-.67-14.65-1.03-7.37-.54-14.74-1-22.1-1.67-8.23-.75-16.4-1.97-24.38-4.21-2.81-.79-5.54-1.76-8.06-3.25-.32-.19-.64-.39-.95-.6C.85,55.77-.45,52.66.13,48.68c.69-4.75,3.15-8.31,7.15-10.85,3.67-2.33,7.67-3.94,11.84-5.13,6.72-1.92,13.59-3.1,20.51-4.01,11.91-1.56,23.88-2.14,35.88-2.52,15.94-.5,31.87-.48,49.13-.18Z"></path></svg>